<svg width="150" height="40" viewBox="0 0 150 40" fill="none" xmlns="http://www.w3.org/2000/svg">
<path fill-rule="evenodd" clip-rule="evenodd" d="M31.25 20C31.25 13.7868 26.2132 8.75 20 8.75H8.75V20C8.75 26.2132 13.7868 31.25 20 31.25C26.2132 31.25 31.25 26.2132 31.25 20ZM20 14.5536H14.5536V20C14.5536 23.008 16.992 25.4464 20 25.4464C23.008 25.4464 25.4464 23.008 25.4464 20C25.4464 16.992 23.008 14.5536 20 14.5536Z" fill="#043590"/>
<path fill-rule="evenodd" clip-rule="evenodd" d="M40 20C40 8.9543 31.0457 0 20 0H0V20C0 31.0457 8.9543 40 20 40C31.0457 40 40 31.0457 40 20ZM20 5.80357H5.80357V20C5.80357 27.8405 12.1595 34.1964 20 34.1964C27.8405 34.1964 34.1964 27.8405 34.1964 20C34.1964 12.1595 27.8405 5.80357 20 5.80357Z" fill="#043590"/>
<path fill-rule="evenodd" clip-rule="evenodd" d="M129.702 10.3814L127.46 26.1071H123.093L125.778 8.89509C126.132 6.8142 127.578 5.71429 129.584 5.71429C131.354 5.71429 132.859 6.4872 133.331 8.41946L136.665 20.9048C136.665 20.994 136.694 20.994 136.694 20.994C136.724 20.994 136.753 20.994 136.753 20.9048L140.028 8.50864C140.53 6.57638 142.064 5.71429 143.863 5.71429C145.84 5.71429 147.256 6.84392 147.551 8.98427L150 26.1071H145.634L143.716 10.4112C143.716 10.2625 143.686 10.1734 143.568 10.1734C143.48 10.1734 143.421 10.2328 143.391 10.3517L139.703 23.61C139.29 25.1261 138.11 25.8692 136.694 25.8692C135.337 25.8692 134.068 25.1558 133.714 23.6992L130.027 10.3517C129.997 10.2031 129.938 10.1734 129.879 10.1734C129.79 10.1734 129.702 10.2328 129.702 10.3814ZM100.374 16.1188C100.374 22.0345 95.8899 26.4935 90.0188 26.4935C84.1477 26.4935 79.6928 22.0345 79.6928 16.1188C79.6928 10.2328 84.1477 5.74402 90.0188 5.74402C95.9194 5.74402 100.374 10.2328 100.374 16.1188ZM84.1182 16.1188C84.1182 19.6563 86.7145 22.3912 90.0188 22.3912C93.3231 22.3912 95.9194 19.6563 95.9194 16.1188C95.9194 12.5812 93.3526 9.84636 90.0188 9.84636C86.7145 9.84636 84.1182 12.5812 84.1182 16.1188ZM54.7546 26.1071C59.5045 26.1071 62.9564 24.4423 62.9564 20.5184C62.9564 17.9916 61.6287 16.7133 59.652 16.1485C61.5402 15.435 62.7498 13.8892 62.7498 11.6003C62.7498 8.18164 59.77 6.10075 54.8136 6.10075H47.1428V26.1071H54.7546ZM51.4502 9.66799H55.0496C57.2623 9.66799 58.4424 10.4706 58.4424 11.957C58.4424 13.592 57.3803 14.4243 55.0201 14.4243H51.4502V9.66799ZM51.4502 17.9916H55.0201C57.4393 17.9916 58.6489 18.5267 58.6489 20.2211C58.6489 22.0642 57.0853 22.5398 54.9906 22.5398H51.4502V17.9916ZM70.294 6.10075H65.9866V22.3912C65.9866 24.6802 67.0487 26.1071 69.7925 26.1071H79.5579V22.0939H70.294V6.10075ZM111.542 26.4935C117.413 26.4935 121.898 22.0345 121.898 16.1188C121.898 10.2328 117.443 5.74402 111.542 5.74402C105.671 5.74402 101.216 10.2328 101.216 16.1188C101.216 22.0345 105.671 26.4935 111.542 26.4935ZM111.542 22.3912C108.238 22.3912 105.641 19.6563 105.641 16.1188C105.641 12.5812 108.238 9.84636 111.542 9.84636C114.876 9.84636 117.443 12.5812 117.443 16.1188C117.443 19.6563 114.846 22.3912 111.542 22.3912ZM60.0818 33.9956C59.7615 34.2293 59.3496 34.3461 58.846 34.3461C58.3424 34.3461 57.9365 34.2051 57.6282 33.9231C57.322 33.6411 57.1458 33.2624 57.0994 32.787L57.9123 32.793C58.0231 33.2503 58.3444 33.4799 58.8762 33.4819C59.0998 33.4819 59.2781 33.4406 59.411 33.358C59.546 33.2755 59.6155 33.1496 59.6195 32.9803C59.6195 32.8977 59.5974 32.8192 59.553 32.7446C59.5107 32.6701 59.4634 32.6097 59.411 32.5633C59.3607 32.515 59.2771 32.4616 59.1602 32.4032C59.0454 32.3428 58.9537 32.2995 58.8853 32.2733C58.8168 32.2451 58.709 32.2018 58.5619 32.1433C58.4008 32.0809 58.2729 32.0285 58.1782 31.9862C58.0835 31.9439 57.9697 31.8835 57.8367 31.8049C57.7058 31.7263 57.6041 31.6468 57.5315 31.5662C57.459 31.4856 57.3956 31.3849 57.3412 31.264C57.2888 31.1411 57.2626 31.0072 57.2626 30.8621C57.2626 30.4834 57.4187 30.1762 57.731 29.9405C58.0452 29.7028 58.431 29.584 58.8883 29.584C59.8532 29.584 60.4273 30.0866 60.6106 31.0918H59.7434C59.7233 30.8944 59.6427 30.7241 59.5017 30.5811C59.3607 30.4361 59.1643 30.3636 58.9125 30.3636C58.7191 30.3636 58.5549 30.4059 58.4199 30.4905C58.287 30.5751 58.2205 30.6869 58.2205 30.8259C58.2205 30.9004 58.2406 30.9689 58.2809 31.0314C58.3232 31.0918 58.3927 31.1512 58.4894 31.2096C58.5861 31.2681 58.6727 31.3144 58.7493 31.3486C58.8258 31.3809 58.9407 31.4282 59.0938 31.4907C59.2469 31.5511 59.3617 31.5984 59.4382 31.6327C59.5168 31.6649 59.6256 31.7163 59.7646 31.7868C59.9036 31.8553 60.0103 31.9238 60.0849 31.9922C60.1614 32.0607 60.242 32.1433 60.3266 32.24C60.4112 32.3367 60.4716 32.4465 60.5079 32.5694C60.5462 32.6903 60.5653 32.8232 60.5653 32.9683C60.5653 33.4175 60.4042 33.7599 60.0818 33.9956ZM48.4482 29.6444H47.5145V34.2857H48.4482V29.6444ZM54.9374 34.2857V29.6444H54.0097V32.8685L51.6317 29.6444H50.6798V34.2857H51.6135V31.0555L53.9855 34.2857H54.9374ZM64.5676 34.3461C65.0994 34.3461 65.5486 34.1961 65.9153 33.8959C66.2819 33.5937 66.4652 33.2241 66.4652 32.787V29.6444H65.5315V32.6208C65.5315 32.8726 65.4378 33.0871 65.2505 33.2644C65.0631 33.4417 64.8355 33.5303 64.5676 33.5303C64.2997 33.5303 64.071 33.4417 63.8817 33.2644C63.6943 33.0871 63.6007 32.8726 63.6007 32.6208V29.6444H62.667V32.787C62.667 33.2241 62.8503 33.5937 63.2169 33.8959C63.5855 34.1961 64.0358 34.3461 64.5676 34.3461ZM72.4104 34.2857H71.3619L70.2862 32.5664H69.6426V34.2857H68.7089V29.6444H70.812C71.1866 29.6444 71.509 29.7975 71.7789 30.1037C72.0508 30.4079 72.1868 30.7584 72.1868 31.1552C72.1868 31.4655 72.0952 31.7505 71.9118 32.0104C71.7285 32.2682 71.4979 32.4324 71.2199 32.5029L72.4104 34.2857ZM70.7757 31.8412C70.9368 31.8412 71.0708 31.7777 71.1776 31.6508C71.2843 31.5219 71.3377 31.3547 71.3377 31.1492C71.3377 30.9518 71.2843 30.7866 71.1776 30.6536C71.0708 30.5207 70.9368 30.4542 70.7757 30.4542H69.6426V31.8412H70.7757ZM75.4699 33.346H77.4854L77.8692 34.2857H78.8784L77.017 29.6444H75.9685L74.1072 34.2857H75.1164L75.4699 33.346ZM76.4973 30.5902L77.2195 32.5392H75.7419L76.4973 30.5902ZM85.0079 29.6444V34.2857H84.0561L81.6841 31.0555V34.2857H80.7504V29.6444H81.7022L84.0803 32.8685V29.6444H85.0079ZM87.732 33.6572C88.1571 34.1165 88.7 34.3461 89.3607 34.3461C89.9087 34.3461 90.3891 34.1608 90.8021 33.7901C91.217 33.4195 91.4447 32.9864 91.485 32.4908H90.6057C90.5734 32.7346 90.4485 32.9582 90.231 33.1616C90.0134 33.3631 89.7233 33.4638 89.3607 33.4638C88.9357 33.4638 88.5993 33.3228 88.3515 33.0408C88.1057 32.7567 87.9828 32.3982 87.9828 31.9651C87.9828 31.536 88.1057 31.1804 88.3515 30.8984C88.5993 30.6144 88.9357 30.4723 89.3607 30.4723C89.7415 30.4723 90.0356 30.5741 90.2431 30.7775C90.4526 30.979 90.5734 31.2096 90.6057 31.4695H91.485C91.4507 30.9095 91.2362 30.4552 90.8414 30.1067C90.4485 29.7582 89.955 29.584 89.3607 29.584C88.698 29.584 88.1551 29.8126 87.732 30.2699C87.309 30.7272 87.0975 31.2922 87.0975 31.9651C87.0975 32.6339 87.309 33.1979 87.732 33.6572ZM94.6986 30.4542V31.5571H96.563V32.373H94.6986V33.4699H96.8228V34.2857H93.7649V29.6444H96.8228V30.4542H94.6986ZM103.712 34.3461C104.216 34.3461 104.628 34.2293 104.948 33.9956C105.271 33.7599 105.432 33.4175 105.432 32.9683C105.432 32.8232 105.413 32.6903 105.374 32.5694C105.338 32.4465 105.278 32.3367 105.193 32.24C105.108 32.1433 105.028 32.0607 104.951 31.9922C104.877 31.9238 104.77 31.8553 104.631 31.7868C104.492 31.7163 104.383 31.6649 104.305 31.6327C104.228 31.5984 104.113 31.5511 103.96 31.4907C103.807 31.4282 103.692 31.3809 103.616 31.3486C103.539 31.3144 103.453 31.2681 103.356 31.2096C103.259 31.1512 103.19 31.0918 103.147 31.0314C103.107 30.9689 103.087 30.9004 103.087 30.8259C103.087 30.6869 103.153 30.5751 103.286 30.4905C103.421 30.4059 103.585 30.3636 103.779 30.3636C104.031 30.3636 104.227 30.4361 104.368 30.5811C104.509 30.7241 104.59 30.8944 104.61 31.0918H105.477C105.294 30.0866 104.72 29.584 103.755 29.584C103.297 29.584 102.912 29.7028 102.597 29.9405C102.285 30.1762 102.129 30.4834 102.129 30.8621C102.129 31.0072 102.155 31.1411 102.208 31.264C102.262 31.3849 102.325 31.4856 102.398 31.5662C102.47 31.6468 102.572 31.7263 102.703 31.8049C102.836 31.8835 102.95 31.9439 103.045 31.9862C103.139 32.0285 103.267 32.0809 103.428 32.1433C103.575 32.2018 103.683 32.2451 103.752 32.2733C103.82 32.2995 103.912 32.3428 104.027 32.4032C104.143 32.4616 104.227 32.515 104.277 32.5633C104.33 32.6097 104.377 32.6701 104.419 32.7446C104.464 32.8192 104.486 32.8977 104.486 32.9803C104.482 33.1496 104.412 33.2755 104.277 33.358C104.144 33.4406 103.966 33.4819 103.743 33.4819C103.211 33.4799 102.889 33.2503 102.779 32.793L101.966 32.787C102.012 33.2624 102.188 33.6411 102.495 33.9231C102.803 34.2051 103.209 34.3461 103.712 34.3461ZM109.649 34.3461C108.984 34.3461 108.44 34.1175 108.017 33.6602C107.596 33.2029 107.385 32.6379 107.385 31.9651C107.385 31.2922 107.597 30.7272 108.02 30.2699C108.443 29.8126 108.986 29.584 109.649 29.584C110.309 29.584 110.852 29.8136 111.277 30.2729C111.702 30.7322 111.915 31.2963 111.915 31.9651C111.915 32.6339 111.702 33.1979 111.277 33.6572C110.852 34.1165 110.309 34.3461 109.649 34.3461ZM108.645 33.0257C108.893 33.3037 109.228 33.4427 109.649 33.4427C110.07 33.4427 110.402 33.3037 110.646 33.0257C110.889 32.7477 111.011 32.3941 111.011 31.9651C111.011 31.5319 110.889 31.1764 110.646 30.8984C110.402 30.6184 110.07 30.4784 109.649 30.4784C109.223 30.4784 108.888 30.6184 108.642 30.8984C108.399 31.1764 108.277 31.5319 108.277 31.9651C108.277 32.3941 108.4 32.7477 108.645 33.0257ZM114.932 29.6444H113.998V34.2857H116.497V33.4699H114.932V29.6444ZM121.814 33.8959C121.447 34.1961 120.998 34.3461 120.466 34.3461C119.934 34.3461 119.484 34.1961 119.116 33.8959C118.749 33.5937 118.566 33.2241 118.566 32.787V29.6444H119.499V32.6208C119.499 32.8726 119.593 33.0871 119.78 33.2644C119.97 33.4417 120.198 33.5303 120.466 33.5303C120.734 33.5303 120.962 33.4417 121.149 33.2644C121.337 33.0871 121.43 32.8726 121.43 32.6208V29.6444H122.364V32.787C122.364 33.2241 122.181 33.5937 121.814 33.8959ZM126.617 30.4542H127.931V29.6444H124.378V30.4542H125.695V34.2857H126.617V30.4542ZM129.93 29.6444H130.864V34.2857H129.93V29.6444ZM133.591 33.6602C134.014 34.1175 134.558 34.3461 135.223 34.3461C135.884 34.3461 136.426 34.1165 136.852 33.6572C137.277 33.1979 137.489 32.6339 137.489 31.9651C137.489 31.2963 137.277 30.7322 136.852 30.2729C136.426 29.8136 135.884 29.584 135.223 29.584C134.56 29.584 134.017 29.8126 133.594 30.2699C133.171 30.7272 132.96 31.2922 132.96 31.9651C132.96 32.6379 133.17 33.2029 133.591 33.6602ZM135.223 33.4427C134.802 33.4427 134.467 33.3037 134.22 33.0257C133.974 32.7477 133.851 32.3941 133.851 31.9651C133.851 31.5319 133.973 31.1764 134.217 30.8984C134.462 30.6184 134.798 30.4784 135.223 30.4784C135.644 30.4784 135.976 30.6184 136.22 30.8984C136.464 31.1764 136.586 31.5319 136.586 31.9651C136.586 32.3941 136.464 32.7477 136.22 33.0257C135.976 33.3037 135.644 33.4427 135.223 33.4427ZM143.83 34.2857H142.878L140.506 31.0555V34.2857H139.573V29.6444H140.524L142.903 32.8685V29.6444H143.83V34.2857ZM147.739 34.3461C148.242 34.3461 148.654 34.2293 148.975 33.9956C149.297 33.7599 149.458 33.4175 149.458 32.9683C149.458 32.8232 149.439 32.6903 149.401 32.5694C149.364 32.4465 149.304 32.3367 149.219 32.24C149.135 32.1433 149.054 32.0607 148.978 31.9922C148.903 31.9238 148.796 31.8553 148.657 31.7868C148.518 31.7163 148.41 31.6649 148.331 31.6327C148.254 31.5984 148.14 31.5511 147.987 31.4907C147.833 31.4282 147.719 31.3809 147.642 31.3486C147.566 31.3144 147.479 31.2681 147.382 31.2096C147.286 31.1512 147.216 31.0918 147.174 31.0314C147.133 30.9689 147.113 30.9004 147.113 30.8259C147.113 30.6869 147.18 30.5751 147.313 30.4905C147.448 30.4059 147.612 30.3636 147.805 30.3636C148.057 30.3636 148.253 30.4361 148.394 30.5811C148.535 30.7241 148.616 30.8944 148.636 31.0918H149.503C149.32 30.0866 148.746 29.584 147.781 29.584C147.324 29.584 146.938 29.7028 146.624 29.9405C146.312 30.1762 146.155 30.4834 146.155 30.8621C146.155 31.0072 146.182 31.1411 146.234 31.264C146.288 31.3849 146.352 31.4856 146.424 31.5662C146.497 31.6468 146.599 31.7263 146.73 31.8049C146.862 31.8835 146.976 31.9439 147.071 31.9862C147.166 32.0285 147.294 32.0809 147.455 32.1433C147.602 32.2018 147.71 32.2451 147.778 32.2733C147.847 32.2995 147.938 32.3428 148.053 32.4032C148.17 32.4616 148.253 32.515 148.304 32.5633C148.356 32.6097 148.404 32.6701 148.446 32.7446C148.49 32.8192 148.512 32.8977 148.512 32.9803C148.508 33.1496 148.439 33.2755 148.304 33.358C148.171 33.4406 147.993 33.4819 147.769 33.4819C147.237 33.4799 146.916 33.2503 146.805 32.793L145.992 32.787C146.039 33.2624 146.215 33.6411 146.521 33.9231C146.829 34.2051 147.235 34.3461 147.739 34.3461Z" fill="black"/>
</svg>
